<mxfile host="app.diagrams.net" modified="2023-11-13T01:02:15.534Z" agent="Mozilla/5.0 (Windows NT 10.0; Win64; x64) AppleWebKit/537.36 (KHTML, like Gecko) Chrome/119.0.0.0 Safari/537.36" etag="EuRzbmseEZNOUpufTlcQ" version="22.1.0" type="github">
  <diagram name="Page-1" id="BMZSM9KwhaXTUpQm-cQ1">
    <mxGraphModel dx="1420" dy="804" grid="1" gridSize="10" guides="1" tooltips="1" connect="1" arrows="1" fold="1" page="1" pageScale="1" pageWidth="850" pageHeight="1100" math="0" shadow="0">
      <root>
        <mxCell id="0" />
        <mxCell id="1" parent="0" />
        <mxCell id="g5pCtLDesIJZ2-OjXXoa-2" style="edgeStyle=orthogonalEdgeStyle;rounded=0;orthogonalLoop=1;jettySize=auto;html=1;exitX=1;exitY=0.5;exitDx=0;exitDy=0;" edge="1" parent="1" source="g5pCtLDesIJZ2-OjXXoa-3" target="g5pCtLDesIJZ2-OjXXoa-6">
          <mxGeometry relative="1" as="geometry" />
        </mxCell>
        <mxCell id="g5pCtLDesIJZ2-OjXXoa-3" value="" style="ellipse;fillColor=strokeColor;html=1;" vertex="1" parent="1">
          <mxGeometry x="150" y="150" width="30" height="30" as="geometry" />
        </mxCell>
        <mxCell id="g5pCtLDesIJZ2-OjXXoa-4" value="" style="ellipse;html=1;shape=endState;fillColor=strokeColor;" vertex="1" parent="1">
          <mxGeometry x="685" y="590" width="30" height="30" as="geometry" />
        </mxCell>
        <mxCell id="g5pCtLDesIJZ2-OjXXoa-5" style="edgeStyle=orthogonalEdgeStyle;rounded=0;orthogonalLoop=1;jettySize=auto;html=1;" edge="1" parent="1" source="g5pCtLDesIJZ2-OjXXoa-6" target="g5pCtLDesIJZ2-OjXXoa-8">
          <mxGeometry relative="1" as="geometry" />
        </mxCell>
        <mxCell id="g5pCtLDesIJZ2-OjXXoa-22" style="edgeStyle=orthogonalEdgeStyle;rounded=0;orthogonalLoop=1;jettySize=auto;html=1;entryX=0.5;entryY=0;entryDx=0;entryDy=0;" edge="1" parent="1" source="g5pCtLDesIJZ2-OjXXoa-6" target="g5pCtLDesIJZ2-OjXXoa-14">
          <mxGeometry relative="1" as="geometry" />
        </mxCell>
        <mxCell id="g5pCtLDesIJZ2-OjXXoa-6" value="Logged In" style="rounded=1;whiteSpace=wrap;html=1;" vertex="1" parent="1">
          <mxGeometry x="330" y="135" width="120" height="60" as="geometry" />
        </mxCell>
        <mxCell id="g5pCtLDesIJZ2-OjXXoa-7" style="edgeStyle=orthogonalEdgeStyle;rounded=0;orthogonalLoop=1;jettySize=auto;html=1;entryX=0;entryY=0.5;entryDx=0;entryDy=0;" edge="1" parent="1" source="g5pCtLDesIJZ2-OjXXoa-8" target="g5pCtLDesIJZ2-OjXXoa-14">
          <mxGeometry relative="1" as="geometry" />
        </mxCell>
        <mxCell id="g5pCtLDesIJZ2-OjXXoa-8" value="In the Waitlist" style="rounded=1;whiteSpace=wrap;html=1;" vertex="1" parent="1">
          <mxGeometry x="330" y="290" width="120" height="60" as="geometry" />
        </mxCell>
        <mxCell id="g5pCtLDesIJZ2-OjXXoa-34" style="edgeStyle=orthogonalEdgeStyle;rounded=0;orthogonalLoop=1;jettySize=auto;html=1;" edge="1" parent="1" source="g5pCtLDesIJZ2-OjXXoa-12" target="g5pCtLDesIJZ2-OjXXoa-4">
          <mxGeometry relative="1" as="geometry" />
        </mxCell>
        <mxCell id="g5pCtLDesIJZ2-OjXXoa-12" value="Waitlist Information&lt;br&gt;Displayed" style="rounded=1;whiteSpace=wrap;html=1;" vertex="1" parent="1">
          <mxGeometry x="640" y="450" width="120" height="60" as="geometry" />
        </mxCell>
        <mxCell id="g5pCtLDesIJZ2-OjXXoa-13" style="edgeStyle=orthogonalEdgeStyle;rounded=0;orthogonalLoop=1;jettySize=auto;html=1;" edge="1" parent="1" source="g5pCtLDesIJZ2-OjXXoa-14" target="g5pCtLDesIJZ2-OjXXoa-12">
          <mxGeometry relative="1" as="geometry" />
        </mxCell>
        <mxCell id="g5pCtLDesIJZ2-OjXXoa-14" value="Waitlist Information&lt;br&gt;Found" style="rounded=1;whiteSpace=wrap;html=1;" vertex="1" parent="1">
          <mxGeometry x="640" y="290" width="120" height="60" as="geometry" />
        </mxCell>
        <mxCell id="g5pCtLDesIJZ2-OjXXoa-15" value="Login" style="text;html=1;align=center;verticalAlign=middle;resizable=0;points=[];autosize=1;strokeColor=none;fillColor=none;" vertex="1" parent="1">
          <mxGeometry x="225" y="135" width="50" height="30" as="geometry" />
        </mxCell>
        <mxCell id="g5pCtLDesIJZ2-OjXXoa-21" value="Enter Waitlist" style="text;html=1;align=center;verticalAlign=middle;resizable=0;points=[];autosize=1;strokeColor=none;fillColor=none;" vertex="1" parent="1">
          <mxGeometry x="390" y="250" width="90" height="30" as="geometry" />
        </mxCell>
        <mxCell id="g5pCtLDesIJZ2-OjXXoa-23" value="Check Waitlist" style="text;html=1;align=center;verticalAlign=middle;resizable=0;points=[];autosize=1;strokeColor=none;fillColor=none;" vertex="1" parent="1">
          <mxGeometry x="510" y="135" width="100" height="30" as="geometry" />
        </mxCell>
        <mxCell id="g5pCtLDesIJZ2-OjXXoa-24" value="Display Waitlist&lt;br&gt;Information" style="text;html=1;align=center;verticalAlign=middle;resizable=0;points=[];autosize=1;strokeColor=none;fillColor=none;" vertex="1" parent="1">
          <mxGeometry x="700" y="380" width="100" height="40" as="geometry" />
        </mxCell>
        <mxCell id="g5pCtLDesIJZ2-OjXXoa-33" value="Check Waitlist" style="text;html=1;align=center;verticalAlign=middle;resizable=0;points=[];autosize=1;strokeColor=none;fillColor=none;" vertex="1" parent="1">
          <mxGeometry x="480" y="290" width="100" height="30" as="geometry" />
        </mxCell>
        <mxCell id="g5pCtLDesIJZ2-OjXXoa-35" value="Logout" style="text;html=1;align=center;verticalAlign=middle;resizable=0;points=[];autosize=1;strokeColor=none;fillColor=none;" vertex="1" parent="1">
          <mxGeometry x="700" y="535" width="60" height="30" as="geometry" />
        </mxCell>
      </root>
    </mxGraphModel>
  </diagram>
</mxfile>
